<?xml version="1.0" encoding="utf-8"?>
<!-- Generator: Adobe Illustrator 15.0.0, SVG Export Plug-In . SVG Version: 6.00 Build 0)  -->
<!DOCTYPE svg PUBLIC "-//W3C//DTD SVG 1.1//EN" "http://www.w3.org/Graphics/SVG/1.1/DTD/svg11.dtd">
<svg version="1.1" id="Layer_1" xmlns="http://www.w3.org/2000/svg" xmlns:xlink="http://www.w3.org/1999/xlink" x="0px" y="0px"
	 width="388.08px" height="81.844px" viewBox="0 0 388.08 81.844" enable-background="new 0 0 388.08 81.844" xml:space="preserve">
<g enable-background="new    ">
	<path d="M14.287,8.87v45.288h15.518v7.485H6.323V8.87H14.287z"/>
	<path d="M39.697,14.51c0-1.344,0.49-2.506,1.47-3.486c0.979-0.979,2.153-1.47,3.521-1.47c1.39,0,2.575,0.49,3.555,1.47
		c0.979,0.957,1.47,2.131,1.47,3.521c0,1.391-0.49,2.575-1.47,3.555c-0.957,0.98-2.131,1.47-3.521,1.47
		c-1.39,0-2.575-0.489-3.555-1.47C40.187,17.119,39.697,15.923,39.697,14.51z M48.549,28.353v33.291h-7.69V28.353H48.549z"/>
	<path d="M67.396,28.353l8.613,18.696l8.579-18.696h8.647L75.941,63.934L58.783,28.353H67.396z"/>
	<path d="M132.522,46.81h-23.857c0.205,2.734,1.094,4.911,2.666,6.528c1.572,1.596,3.589,2.393,6.05,2.393
		c1.914,0,3.498-0.455,4.751-1.367c1.23-0.911,2.632-2.598,4.204-5.059l6.494,3.623c-1.003,1.709-2.062,3.174-3.179,4.392
		c-1.117,1.22-2.313,2.223-3.589,3.008c-1.276,0.787-2.655,1.361-4.136,1.727c-1.481,0.364-3.088,0.547-4.819,0.547
		c-4.968,0-8.955-1.595-11.963-4.785c-3.008-3.213-4.512-7.474-4.512-12.783c0-5.264,1.458-9.524,4.375-12.783
		c2.939-3.213,6.836-4.819,11.689-4.819c4.899,0,8.772,1.562,11.621,4.683c2.825,3.1,4.238,7.395,4.238,12.886L132.522,46.81z
		 M124.627,40.521c-1.071-4.102-3.657-6.152-7.759-6.152c-0.935,0-1.812,0.143-2.632,0.428s-1.567,0.695-2.239,1.23
		c-0.672,0.535-1.248,1.179-1.726,1.931s-0.843,1.606-1.094,2.563H124.627z"/>
	<path d="M145.524,61.644l11.108-56.738l18.115,41.016l18.765-41.016l9.98,56.738h-8.169l-5.093-31.855l-15.62,34.282
		l-15.176-34.316l-5.674,31.89H145.524z"/>
	<path d="M242.712,28.353h7.725v33.291h-7.725v-3.486c-3.168,2.963-6.574,4.443-10.221,4.443c-4.603,0-8.408-1.663-11.416-4.99
		c-2.984-3.395-4.477-7.633-4.477-12.715c0-4.99,1.492-9.148,4.477-12.476c2.985-3.326,6.723-4.99,11.211-4.99
		c3.874,0,7.35,1.596,10.426,4.785V28.353z M222.751,19.158l11.996-10.972l12.168,10.972l-5.264,4.067l-6.904-6.494l-6.801,6.494
		L222.751,19.158z M224.46,44.896c0,3.19,0.854,5.788,2.562,7.793c1.755,2.028,3.965,3.042,6.631,3.042
		c2.849,0,5.15-0.979,6.904-2.939c1.755-2.027,2.633-4.603,2.633-7.725c0-3.121-0.878-5.696-2.633-7.725
		c-1.754-1.982-4.033-2.974-6.836-2.974c-2.643,0-4.854,1.003-6.631,3.008C225.337,39.404,224.46,41.911,224.46,44.896z"/>
	<path d="M291.021,29.788v10.22c-1.754-2.142-3.326-3.611-4.717-4.409c-1.367-0.82-2.973-1.23-4.818-1.23
		c-2.895,0-5.299,1.015-7.213,3.042c-1.914,2.028-2.871,4.569-2.871,7.622c0,3.122,0.924,5.686,2.77,7.69
		c1.867,2.006,4.249,3.008,7.143,3.008c1.846,0,3.475-0.398,4.889-1.196c1.367-0.774,2.973-2.278,4.818-4.512v10.151
		c-3.121,1.617-6.243,2.427-9.365,2.427c-5.149,0-9.456-1.663-12.92-4.99c-3.463-3.35-5.195-7.508-5.195-12.476
		c0-4.967,1.755-9.16,5.264-12.578c3.51-3.418,7.816-5.127,12.92-5.127C285.005,27.43,288.104,28.216,291.021,29.788z"/>
	<path d="M305.254,3.914h7.69v27.207c2.734-2.461,5.754-3.691,9.058-3.691c3.76,0,6.768,1.22,9.023,3.657
		c1.914,2.119,2.871,5.503,2.871,10.151v20.405h-7.69V41.956c0-2.666-0.473-4.598-1.418-5.793c-0.946-1.197-2.467-1.795-4.563-1.795
		c-2.688,0-4.58,0.832-5.674,2.495c-1.071,1.687-1.606,4.58-1.606,8.682v16.099h-7.69V3.914z"/>
	<path d="M378.925,46.81h-23.857c0.205,2.734,1.094,4.911,2.666,6.528c1.572,1.596,3.589,2.393,6.05,2.393
		c1.914,0,3.497-0.455,4.751-1.367c1.23-0.911,2.632-2.598,4.204-5.059l6.494,3.623c-1.003,1.709-2.062,3.174-3.179,4.392
		c-1.117,1.22-2.312,2.223-3.589,3.008c-1.276,0.787-2.655,1.361-4.136,1.727c-1.481,0.364-3.088,0.547-4.819,0.547
		c-4.968,0-8.955-1.595-11.963-4.785c-3.008-3.213-4.512-7.474-4.512-12.783c0-5.264,1.458-9.524,4.375-12.783
		c2.939-3.213,6.836-4.819,11.689-4.819c4.899,0,8.772,1.562,11.621,4.683c2.825,3.1,4.238,7.395,4.238,12.886L378.925,46.81z
		 M371.029,40.521c-1.071-4.102-3.657-6.152-7.759-6.152c-0.935,0-1.812,0.143-2.632,0.428s-1.567,0.695-2.239,1.23
		s-1.247,1.179-1.726,1.931s-0.843,1.606-1.094,2.563H371.029z M374.652,11.946l-12.441,11.279l-4.204-2.598l9.399-12.441
		L374.652,11.946z"/>
</g>
</svg>
